<?xml version="1.0" standalone="no"?>
<!DOCTYPE svg PUBLIC "-//W3C//DTD SVG 20010904//EN"
 "http://www.w3.org/TR/2001/REC-SVG-20010904/DTD/svg10.dtd">
<svg version="1.0" xmlns="http://www.w3.org/2000/svg"
 width="260.000000pt" height="260.000000pt" viewBox="0 0 260.000000 260.000000"
 preserveAspectRatio="xMidYMid meet">
<metadata>
Created by potrace 1.14, written by Peter Selinger 2001-2017
</metadata>
<g transform="translate(0.000000,260.000000) scale(0.100000,-0.100000)"
fill="#000000" stroke="none">
<path d="M0 1300 l0 -1300 1300 0 1300 0 0 1300 0 1300 -1300 0 -1300 0 0
-1300z m771 1071 l29 -29 0 -242 0 -242 -29 -29 -29 -29 -242 0 -242 0 -29 29
-29 29 0 242 0 242 29 29 29 29 242 0 242 0 29 -29z m800 0 l29 -29 0 -242 0
-242 -29 -29 -29 -29 -242 0 -242 0 -29 29 -29 29 0 242 0 242 29 29 29 29
242 0 242 0 29 -29z m800 0 l29 -29 0 -242 0 -242 -29 -29 -29 -29 -242 0
-242 0 -29 29 -29 29 0 242 0 242 29 29 29 29 242 0 242 0 29 -29z m-1600
-800 l29 -29 0 -242 0 -242 -29 -29 -29 -29 -242 0 -242 0 -29 29 -29 29 0
242 0 242 29 29 29 29 242 0 242 0 29 -29z m800 0 l29 -29 0 -242 0 -242 -29
-29 -29 -29 -242 0 -242 0 -29 29 -29 29 0 242 0 242 29 29 29 29 242 0 242 0
29 -29z m782 18 c43 -19 47 -46 47 -289 0 -147 -4 -238 -11 -253 -19 -43 -46
-47 -289 -47 -243 0 -270 4 -289 47 -15 33 -15 473 0 507 6 13 21 29 33 34 30
15 478 15 509 1z m-1582 -818 l29 -29 0 -242 0 -242 -29 -29 -29 -29 -242 0
-242 0 -29 29 -29 29 0 242 0 242 29 29 29 29 242 0 242 0 29 -29z m800 0 l29
-29 0 -242 0 -242 -29 -29 -29 -29 -242 0 -242 0 -29 29 -29 29 0 242 0 242
29 29 29 29 242 0 242 0 29 -29z m800 0 l29 -29 0 -242 0 -242 -29 -29 -29
-29 -242 0 -242 0 -29 29 -29 29 0 242 0 242 29 29 29 29 242 0 242 0 29 -29z"/>
<path d="M262 2370 c-38 -16 -43 -51 -40 -287 3 -198 5 -224 21 -240 16 -16
41 -18 257 -18 216 0 241 2 257 18 16 16 18 41 18 257 0 216 -2 241 -18 257
-16 16 -42 18 -245 20 -125 1 -237 -2 -250 -7z"/>
<path d="M1062 2370 c-38 -16 -43 -51 -40 -287 3 -198 5 -224 21 -240 16 -16
41 -18 257 -18 216 0 241 2 257 18 16 16 18 41 18 257 0 216 -2 241 -18 257
-16 16 -42 18 -245 20 -125 1 -237 -2 -250 -7z"/>
<path d="M1862 2370 c-38 -16 -43 -51 -40 -287 3 -198 5 -224 21 -240 16 -16
41 -18 257 -18 216 0 241 2 257 18 16 16 18 41 18 257 0 216 -2 241 -18 257
-16 16 -42 18 -245 20 -125 1 -237 -2 -250 -7z"/>
<path d="M262 1570 c-38 -16 -43 -51 -40 -287 3 -198 5 -224 21 -240 16 -16
41 -18 257 -18 216 0 241 2 257 18 16 16 18 41 18 257 0 216 -2 241 -18 257
-16 16 -42 18 -245 20 -125 1 -237 -2 -250 -7z"/>
<path d="M1062 1570 c-38 -16 -43 -51 -40 -287 3 -198 5 -224 21 -240 16 -16
41 -18 257 -18 216 0 241 2 257 18 16 16 18 41 18 257 0 216 -2 241 -18 257
-16 16 -42 18 -245 20 -125 1 -237 -2 -250 -7z"/>
</g>
</svg>
